<svg xmlns="http://www.w3.org/2000/svg" data-name="Layer 1" viewBox="0 0 24 30" x="0px" y="0px"><title>ff</title><path d="M19.838,6.26l-4.1-4.1A2.583,2.583,0,0,0,13.9,1.4H7A3.6,3.6,0,0,0,3.4,5V19A3.6,3.6,0,0,0,7,22.6H17A3.6,3.6,0,0,0,20.6,19V8.1A2.583,2.583,0,0,0,19.838,6.26ZM19.4,19A2.4,2.4,0,0,1,17,21.4H7A2.4,2.4,0,0,1,4.6,19V5A2.4,2.4,0,0,1,7,2.6h6.9a1.391,1.391,0,0,1,.99.41l4.1,4.1a1.391,1.391,0,0,1,.41.99ZM15.877,9.866a.6.6,0,0,1-.6.6h-4.3a.6.6,0,0,1,0-1.2h4.3A.6.6,0,0,1,15.877,9.866Zm0,2.947a.6.6,0,0,1-.6.6h-4.3a.6.6,0,0,1,0-1.2h4.3A.6.6,0,0,1,15.877,12.813Zm0,2.947a.6.6,0,0,1-.6.6h-4.3a.6.6,0,0,1,0-1.2h4.3A.6.6,0,0,1,15.877,15.759ZM9.512,9.9a.773.773,0,1,1-.773-.773A.773.773,0,0,1,9.512,9.9Zm0,2.915a.773.773,0,1,1-.773-.773A.773.773,0,0,1,9.512,12.813Zm0,2.915a.773.773,0,1,1-.773-.773A.773.773,0,0,1,9.512,15.727Z"/></svg>